<svg width="44" height="44" viewBox="0 0 44 44" fill="none" xmlns="http://www.w3.org/2000/svg">
<path d="M12.0383 42.2497H5.8653C4.77385 42.2497 3.72711 41.823 2.95534 41.0635C2.18357 40.304 1.75 39.2739 1.75 38.1998V24.0249C1.75 22.9507 2.18357 21.9206 2.95534 21.1611C3.72711 20.4016 4.77385 19.9749 5.8653 19.9749H12.0383M26.4418 15.9249V7.82496C26.4418 6.21378 25.7914 4.66859 24.6338 3.52932C23.4761 2.39004 21.906 1.75 20.2689 1.75L12.0383 19.9749V42.2497H35.2485C36.241 42.2608 37.2041 41.9185 37.9603 41.2859C38.7166 40.6533 39.215 39.773 39.3638 38.8073L42.2034 20.5824C42.2929 20.0019 42.2531 19.4093 42.0868 18.8454C41.9205 18.2816 41.6316 17.7601 41.2401 17.3171C40.8487 16.8741 40.364 16.5201 39.8198 16.2797C39.2755 16.0393 38.6846 15.9183 38.0881 15.9249H26.4418Z" stroke="#39B100" stroke-width="3" stroke-linecap="round" stroke-linejoin="round"/>
</svg>
